<svg width="32" height="32" viewBox="0 0 32 32" fill="none" xmlns="http://www.w3.org/2000/svg">
<path d="M8.49998 16.6256C8.15436 16.6256 7.87561 16.9039 7.87561 17.25C7.87561 17.5959 8.15398 17.8742 8.49998 17.8742C8.84592 17.8742 9.12435 17.5959 9.12435 17.25C9.12435 16.9044 8.8461 16.6256 8.49998 16.6256Z" fill="#D8DAD5"/>
<path d="M5.625 0H0.625C0.279875 0 0 0.279813 0 0.625V5.625C0 5.97019 0.279875 6.25 0.625 6.25C0.970125 6.25 1.25 5.97019 1.25 5.625V1.25H5.625C5.97013 1.25 6.25 0.970187 6.25 0.625C6.25 0.279813 5.97013 0 5.625 0Z" fill="#D8DAD5"/>
<path d="M31.375 0H26.375C26.0299 0 25.75 0.279813 25.75 0.625C25.75 0.970187 26.0299 1.25 26.375 1.25H30.75V5.625C30.75 5.97019 31.0299 6.25 31.375 6.25C31.7201 6.25 32 5.97019 32 5.625V0.625C32 0.279813 31.7201 0 31.375 0Z" fill="#D8DAD5"/>
<path d="M5.625 30.75H1.25V26.375C1.25 26.0298 0.970125 25.75 0.625 25.75C0.279875 25.75 0 26.0298 0 26.375V31.375C0 31.7201 0.279875 32 0.625 32H5.625C5.97013 32 6.25 31.7201 6.25 31.375C6.25 31.0299 5.97013 30.75 5.625 30.75Z" fill="#D8DAD5"/>
<path d="M31.375 25.75C31.0299 25.75 30.75 26.0298 30.75 26.375V30.75H26.375C26.0299 30.75 25.75 31.0299 25.75 31.375C25.75 31.7201 26.0299 32 26.375 32H31.375C31.7201 32 32 31.7201 32 31.375V26.375C32 26.0298 31.7201 25.75 31.375 25.75Z" fill="#D8DAD5"/>
<path d="M17.0861 1.68012C16.371 1.60699 15.6291 1.60699 14.9139 1.68012C14.5705 1.71524 14.3206 2.02212 14.3557 2.36549C14.3908 2.70887 14.6976 2.95893 15.0411 2.92362C15.6721 2.85906 16.328 2.85906 16.959 2.92362C16.9806 2.92581 17.002 2.92693 17.0233 2.92693C17.3398 2.92693 17.6114 2.68724 17.6443 2.36549C17.6795 2.02212 17.4295 1.71524 17.0861 1.68012Z" fill="#D8DAD5"/>
<path d="M20.4682 28.7211C20.3338 28.4031 19.9671 28.2544 19.6491 28.3888C18.4935 28.8773 17.2658 29.125 16 29.125C12.1594 29.125 8.74687 26.825 7.30619 23.2656C7.17675 22.9456 6.8125 22.7912 6.49237 22.9207C6.17243 23.0502 6.018 23.4146 6.1475 23.7345C7.73731 27.6622 11.5744 30.375 16 30.375C17.4339 30.375 18.8254 30.0941 20.1359 29.5401C20.4539 29.4057 20.6026 29.0389 20.4682 28.7211Z" fill="#D8DAD5"/>
<path d="M6 16.625C5.65488 16.625 5.375 16.9048 5.375 17.25V19.75C5.375 20.0952 5.65488 20.375 6 20.375C6.34512 20.375 6.625 20.0952 6.625 19.75V17.25C6.625 16.9048 6.34512 16.625 6 16.625Z" fill="#D8DAD5"/>
<path d="M12.6831 2.79207C12.5486 2.47426 12.1819 2.32551 11.8639 2.46001C7.92206 4.12782 5.375 7.97064 5.375 12.25V14.75C5.375 15.0952 5.65488 15.375 6 15.375C6.34512 15.375 6.625 15.0952 6.625 14.75V12.25C6.625 8.47389 8.87262 5.08295 12.351 3.6112C12.6689 3.4767 12.8176 3.10995 12.6831 2.79207Z" fill="#D8DAD5"/>
<path d="M26 18.1875C25.6549 18.1875 25.375 18.4673 25.375 18.8125V19.75C25.375 22.5586 24.1314 25.1953 21.9629 26.9841C21.6966 27.2037 21.6588 27.5977 21.8784 27.864C22.0981 28.1302 22.4919 28.1681 22.7583 27.9484C25.2156 25.9212 26.625 22.9331 26.625 19.75V18.8125C26.625 18.4673 26.3451 18.1875 26 18.1875Z" fill="#D8DAD5"/>
<path d="M20.136 2.45999C19.818 2.32543 19.4514 2.47424 19.3169 2.79212C19.1825 3.10999 19.3312 3.47674 19.6491 3.61118C24.7996 5.78974 25.3669 10.6176 25.3718 12.5921C25.372 12.656 25.3721 12.7054 25.375 12.7496V15.5312V15.5362C25.375 15.8814 25.6549 16.1587 26 16.1587C26.3451 16.1587 26.625 15.8764 26.625 15.5312V12.7187C26.625 8.1678 24.4928 4.3028 20.136 2.45999Z" fill="#D8DAD5"/>
<path d="M23.9597 10.6148C23.7455 9.572 23.3335 8.59443 22.7353 7.70937C22.542 7.42343 22.1536 7.34825 21.8675 7.5415C21.5816 7.73475 21.5064 8.12331 21.6996 8.40931C22.2058 9.15812 22.5541 9.98475 22.7353 10.8664C22.7961 11.1621 23.0563 11.3657 23.3468 11.3657C23.3885 11.3657 23.4309 11.3616 23.4733 11.3528C23.8113 11.2834 24.0292 10.9529 23.9597 10.6148Z" fill="#D8DAD5"/>
<path d="M20.5407 5.51469C17.3285 3.34293 13.0037 3.76043 10.2576 6.50731C7.95537 8.80888 7.91587 10.9899 7.88412 12.7424C7.86399 13.8731 7.88412 12.1612 7.87499 14.75C7.87499 15.0952 8.15487 15.375 8.49999 15.375C8.84512 15.375 9.12499 15.0952 9.12499 14.75V13.1958C9.17505 11.2829 9.0583 9.47381 11.1414 7.39125C13.465 5.067 17.1236 4.71331 19.8406 6.55025C20.1264 6.74356 20.5151 6.66856 20.7084 6.3825C20.9018 6.09656 20.8267 5.708 20.5407 5.51469Z" fill="#D8DAD5"/>
<path d="M20.7084 25.6174C20.5151 25.3314 20.1265 25.2564 19.8405 25.4498C18.686 26.2303 17.3811 26.6268 16.0625 26.6324C12.5238 26.6473 9.125 23.8489 9.125 19.75C9.125 19.4048 8.84512 19.125 8.5 19.125C8.15488 19.125 7.875 19.4048 7.875 19.75C7.875 24.4919 11.7578 27.8756 16.0431 27.8756C17.6507 27.8756 19.208 27.3863 20.5407 26.4853C20.8267 26.2919 20.9018 25.9034 20.7084 25.6174Z" fill="#D8DAD5"/>
<path d="M23.5 12.5625C23.1549 12.5625 22.875 12.8423 22.875 13.1875V19.75C22.875 21.1248 22.4686 22.4529 21.6997 23.5907C21.5064 23.8767 21.5816 24.2652 21.8676 24.4584C22.1523 24.6509 22.5413 24.5778 22.7354 24.2905C23.6445 22.9453 24.125 21.3751 24.125 19.75V13.1875C24.125 12.8423 23.8451 12.5625 23.5 12.5625Z" fill="#D8DAD5"/>
<path d="M16 24.125C13.5878 24.125 11.625 22.1649 11.625 19.75V12.25C11.625 11.6601 11.7408 11.088 11.9691 10.5497C12.1039 10.2319 11.9556 9.865 11.6378 9.73025C11.3199 9.59543 10.9531 9.74387 10.8184 10.0616C10.5242 10.7551 10.375 11.4914 10.375 12.25V19.75C10.375 22.8529 12.8941 25.375 16 25.375C16.3451 25.375 16.625 25.0952 16.625 24.75C16.625 24.4048 16.3451 24.125 16 24.125Z" fill="#D8DAD5"/>
<path d="M21.0237 20.144C20.6862 20.0747 20.3553 20.2924 20.2859 20.6306C20.1141 21.4678 19.7012 22.2324 19.0918 22.8417C18.8477 23.0858 18.8477 23.4816 19.0918 23.7257C19.3359 23.9697 19.7315 23.9697 19.9757 23.7257C20.7586 22.9427 21.2894 21.9594 21.5104 20.8819C21.5797 20.5437 21.3619 20.2134 21.0237 20.144Z" fill="#D8DAD5"/>
<path d="M16 6.625C15.2423 6.625 14.506 6.77413 13.8118 7.06825C13.4939 7.20288 13.3454 7.56969 13.48 7.88756C13.6147 8.20537 13.9815 8.354 14.2993 8.21925C14.8385 7.99081 15.4107 7.875 16 7.875C18.4124 7.875 20.375 9.83763 20.375 12.25V17.875V17.8813C20.375 18.2264 20.6549 18.5063 21 18.5063C21.3451 18.5063 21.625 18.2264 21.625 17.8813V17.875V12.25C21.625 9.14838 19.1016 6.625 16 6.625Z" fill="#D8DAD5"/>
<path d="M16 9.125C14.2769 9.125 12.875 10.5269 12.875 12.25V17.875C12.875 18.2202 13.1549 18.5 13.5 18.5C13.8451 18.5 14.125 18.2202 14.125 17.875V12.25C14.125 11.2161 14.9661 10.375 16 10.375C17.0339 10.375 17.875 11.2161 17.875 12.25C17.875 12.5952 18.1549 12.875 18.5 12.875C18.8451 12.875 19.125 12.5952 19.125 12.25C19.125 10.5269 17.7231 9.125 16 9.125Z" fill="#D8DAD5"/>
<path d="M19.1233 19.116C19.1187 18.8471 19.1167 19.2438 19.125 16.0001C19.125 15.6549 18.8451 15.3751 18.5 15.3751C18.1549 15.3751 17.8813 15.6549 17.8813 16.0001C17.8733 19.1233 17.8702 18.5812 17.8798 19.1374C17.8914 19.8153 17.8899 20.0959 17.7276 20.4789C17.4328 21.1751 16.7547 21.625 16 21.625C15.2456 21.625 14.5674 21.1751 14.2724 20.4787C14.1377 20.1609 13.7711 20.0124 13.4531 20.1471C13.1353 20.2817 12.9868 20.6486 13.1214 20.9664C13.6128 22.1258 14.7426 22.875 16 22.875C17.2578 22.875 18.3878 22.1257 18.8786 20.9664C19.1443 20.3395 19.1359 19.8527 19.1233 19.116Z" fill="#D8DAD5"/>
<path d="M16 11.625C15.6549 11.625 15.375 11.9048 15.375 12.25V19.75C15.375 20.0952 15.6549 20.375 16 20.375C16.3451 20.375 16.625 20.0952 16.625 19.75V12.25C16.625 11.9048 16.3451 11.625 16 11.625Z" fill="#D8DAD5"/>
</svg>
