<svg id="Flat" height="512" viewBox="0 0 512 512" width="512" xmlns="http://www.w3.org/2000/svg"><circle cx="256" cy="256" fill="#ffd754" r="232"/><circle cx="256" cy="256" fill="#edb90c" r="184"/><path d="m288 336a8 8 0 0 0 8-8v-136h24a8 8 0 0 0 0-16h-24v-24a8 8 0 0 0 -16 0v24h-24a8 8 0 0 0 0 16h24v48.862a56 56 0 1 0 0 78.276v8.862a8 8 0 0 0 8 8zm-48-16a40 40 0 1 1 40-40 40.045 40.045 0 0 1 -40 40z" fill="#fbe36a"/><path d="m296 360a8 8 0 0 0 -8-8h-96a8 8 0 0 0 0 16h96a8 8 0 0 0 8-8z" fill="#fbe36a"/><g fill="#fbefb2"><path d="m74.782 232a8 8 0 0 1 -7.889-9.383 192.259 192.259 0 0 1 155.725-155.724 8 8 0 1 1 2.764 15.76 176.214 176.214 0 0 0 -142.73 142.729 8 8 0 0 1 -7.87 6.618z"/><path d="m287.99 445.229a8 8 0 0 1 -1.372-15.882 176.214 176.214 0 0 0 142.73-142.729 8 8 0 1 1 15.759 2.764 192.259 192.259 0 0 1 -155.725 155.725 8.051 8.051 0 0 1 -1.392.122z"/><circle cx="72" cy="256" r="8"/><circle cx="256" cy="72" r="8"/><circle cx="440" cy="256" r="8"/><circle cx="256" cy="440" r="8"/></g></svg>